<svg version="1.0" xmlns="http://www.w3.org/2000/svg" width="128" height="128" viewBox="0 0 96 96"><path d="M7 8.4c-.6.6-1 15.9-1 40.7C6 92.7 5.6 90 12 90c6.3 0 6 1.2 6-26.9V37.5l2.5 5.3c2.8 6 2.5 5.3 13.4 29.2 8.2 17.8 10.4 21 13.8 19.2 1.1-.6 6.6-11.5 13.3-26.2 6.3-13.8 11.7-25.3 12-25.5.3-.2.5 10.3.4 23.3 0 13 .3 24.5.8 25.4 1.3 2.6 15.3 2.6 16.6 0 .5-.9.8-19.2.8-40.5-.1-29.7-.4-39-1.4-39.6-1.2-.7-14.9-.8-15.5 0-.4.4-7 14.7-12.7 27.4-10.6 23.3-13.1 28.7-13.4 28.3-.4-.4-21.1-45.5-23.7-51.6-1-2.3-2.2-4.3-2.6-4.3-4.1-.6-14.5-.3-15.3.5z"/><path d="M28 9.5c-.7.9-1 1.8-.6 2.2.9 1 5.8-1.6 5.1-2.7-.9-1.5-3.1-1.2-4.5.5zM31 16c-1.1.7-1.2 1.2-.3 2.1 1.2 1.2 5.3-.4 5.3-2.1 0-1.3-3-1.3-5 0zM34 23c-1.1.7-1.2 1.2-.3 2.1 1.2 1.2 5.3-.4 5.3-2.1 0-1.3-3-1.3-5 0zM37.5 30c-.9 1-1.3 2-.8 2.3 1.1.7 5.3-1 5.3-2.2 0-1.8-2.9-1.9-4.5-.1zM41.4 36.3c-1.2.7-1.9 1.7-1.7 2.4.6 1.6 5.3-.5 5.3-2.4 0-1.6-.8-1.6-3.6 0zM44.3 42.7c-1.5.5-1.8 3.3-.4 3.3 2.1 0 4.1-1.3 4.1-2.6 0-1.4-1.4-1.7-3.7-.7zM47.3 49.7c-1.2.4-1.9 3.3-.9 3.3 1.9 0 5.6-2.2 5.1-3-.7-1.1-2.2-1.2-4.2-.3z"/></svg>