<svg aria-hidden="true" style="width:0;height:0;position:absolute;overflow:hidden" xmlns="http://www.w3.org/2000/svg"><defs><symbol id="icon-geo-marker12" viewBox="0 0 19 32"><path d="M9.6.658C4.297.658 0 4.938 0 10.239c0 9.166 9.6 21.12 9.6 21.12s9.6-11.956 9.6-21.12C19.2 4.94 14.903.658 9.6.658zm0 14.882a5.186 5.186 0 0 1-5.184-5.184A5.186 5.186 0 0 1 9.6 5.172a5.186 5.186 0 0 1 5.184 5.184A5.186 5.186 0 0 1 9.6 15.54z"/></symbol><symbol id="icon-telegram" viewBox="0 0 32 32"><path d="M26.07 3.996a2.974 2.974 0 0 0-.933.223h-.004c-.285.113-1.64.683-3.7 1.547l-7.382 3.109c-5.297 2.23-10.504 4.426-10.504 4.426l.062-.024s-.359.118-.734.375c-.232.147-.431.34-.586.567-.184.27-.332.683-.277 1.11.09.722.558 1.155.894 1.394.34.242.664.355.664.355h.008l4.883 1.645c.219.703 1.488 4.875 1.793 5.836.18.574.355.933.574 1.207.106.14.23.257.379.351.077.045.16.081.246.106l-.05-.012c.015.004.027.016.038.02.04.011.067.015.118.023.773.234 1.394-.246 1.394-.246l.035-.028 2.883-2.625 4.832 3.707.11.047c1.007.442 2.027.196 2.566-.238.543-.437.754-.996.754-.996l.035-.09 3.734-19.129c.106-.472.133-.914.016-1.343a1.807 1.807 0 0 0-.781-1.047 1.87 1.87 0 0 0-1.067-.27zm-.101 2.05c-.004.063.008.056-.02.177v.011l-3.699 18.93c-.016.027-.043.086-.117.145-.078.062-.14.101-.465-.028l-5.91-4.531-3.57 3.254.75-4.79 9.656-9c.398-.37.265-.448.265-.448.028-.454-.601-.133-.601-.133l-12.176 7.543-.004-.02-5.851-1.972a.188.188 0 0 0 .03-.012l.032-.016.031-.011s5.211-2.196 10.508-4.426c2.652-1.117 5.324-2.242 7.379-3.11a831.676 831.676 0 0 1 3.66-1.53c.082-.032.043-.032.102-.032v-.001z"/></symbol><symbol id="icon-phone" viewBox="0 0 19 32"><path d="M15.6 0a3.602 3.602 0 0 1 3.6 3.6v24.8a3.602 3.602 0 0 1-3.6 3.6h-12A3.602 3.602 0 0 1 0 28.4V3.6A3.602 3.602 0 0 1 3.6 0h12zm0 2.4h-12a1.195 1.195 0 0 0-1.2 1.2v24.8c0 .662.538 1.2 1.2 1.2h12a1.206 1.206 0 0 0 1.2-1.2V3.6a1.2 1.2 0 0 0-1.2-1.2zm-4.002 22.4a1.203 1.203 0 0 1 .852 2.047c-.225.225-.53.352-.848.353l-4 .006a1.203 1.203 0 0 1-.852-2.047c.225-.225.53-.352.848-.353l4-.006z"/></symbol><symbol id="icon-instagram" viewBox="0 0 32 32"><path d="M9.953 1.421c1.564-.072 2.063-.088 6.047-.088s4.483.017 6.045.088c1.563.071 2.629.32 3.563.681a7.218 7.218 0 0 1 2.597 1.693 7.158 7.158 0 0 1 1.691 2.596c.363.933.611 2 .683 3.56.072 1.567.088 2.065.088 6.048 0 3.984-.017 4.483-.088 6.047-.071 1.56-.32 2.627-.683 3.56a7.19 7.19 0 0 1-1.691 2.599 7.187 7.187 0 0 1-2.597 1.691c-.933.363-2 .611-3.56.683-1.565.072-2.064.088-6.048.088s-4.483-.017-6.047-.088c-1.56-.071-2.627-.32-3.56-.683a7.19 7.19 0 0 1-2.599-1.691 7.185 7.185 0 0 1-1.692-2.597c-.361-.933-.609-2-.681-3.56-.072-1.567-.088-2.065-.088-6.048 0-3.984.017-4.483.088-6.045s.32-2.629.681-3.563a7.192 7.192 0 0 1 1.693-2.597 7.195 7.195 0 0 1 2.596-1.692c.933-.361 2-.609 3.56-.681h.001zm11.974 2.64C20.38 3.99 19.916 3.976 16 3.976s-4.38.015-5.927.085c-1.431.065-2.207.304-2.724.505a4.57 4.57 0 0 0-1.687 1.096 4.543 4.543 0 0 0-1.096 1.687c-.201.517-.44 1.293-.505 2.724-.071 1.547-.085 2.011-.085 5.927s.015 4.38.085 5.927c.065 1.431.304 2.207.505 2.724a4.56 4.56 0 0 0 1.096 1.687 4.551 4.551 0 0 0 1.687 1.096c.517.201 1.293.44 2.724.505 1.547.071 2.009.085 5.927.085s4.38-.015 5.927-.085c1.431-.065 2.207-.304 2.724-.505a4.57 4.57 0 0 0 1.687-1.096 4.551 4.551 0 0 0 1.096-1.687c.201-.517.44-1.293.505-2.724.071-1.547.085-2.011.085-5.927s-.015-4.38-.085-5.927c-.065-1.431-.304-2.207-.505-2.724a4.57 4.57 0 0 0-1.096-1.687 4.543 4.543 0 0 0-1.687-1.096c-.517-.201-1.293-.44-2.724-.505zm-7.8 16.46a4.895 4.895 0 0 0 6.749-5 4.891 4.891 0 0 0-1.415-2.981 4.887 4.887 0 0 0-3.94-1.408 4.897 4.897 0 0 0-4.204 6.289 4.898 4.898 0 0 0 2.808 3.101zm-3.458-9.852a7.538 7.538 0 1 1 10.66 10.661 7.538 7.538 0 0 1-10.66-10.661zm14.542-1.085a1.785 1.785 0 0 0-.553-2.948 1.772 1.772 0 0 0-1.967.428 1.781 1.781 0 0 0 1.271 3.006c.464.007.912-.167 1.249-.486z"/></symbol><symbol id="icon-facebook" viewBox="0 0 32 32"><path d="M14.261 11.916v1.836h-1.344v2.244h1.344v6.671h2.763v-6.671h1.853s.175-1.076.259-2.253h-2.101V12.21c0-.231.301-.539.6-.539h1.504V9.334h-2.047c-2.899 0-2.831 2.247-2.831 2.583z"/><path d="M8 5.333A2.668 2.668 0 0 0 5.333 8v16A2.67 2.67 0 0 0 8 26.667h16A2.67 2.67 0 0 0 26.667 24V8A2.668 2.668 0 0 0 24 5.333H8zm0-2.666h16A5.332 5.332 0 0 1 29.333 8v16A5.332 5.332 0 0 1 24 29.333H8A5.332 5.332 0 0 1 2.667 24V8A5.332 5.332 0 0 1 8 2.667z"/></symbol><symbol id="icon-ep_arrow-down-bold" viewBox="0 0 32 32"><path d="M3.272 10.586a2 2 0 0 1 2.828 0l9.9 9.9 9.9-9.9a1.998 1.998 0 0 1 2.804.025 2.001 2.001 0 0 1 .025 2.804L17.415 24.729a2 2 0 0 1-2.828 0L3.273 13.415a2 2 0 0 1 0-2.828z"/></symbol><symbol id="icon-close" viewBox="0 0 32 32"><path stroke-linejoin="round" stroke-linecap="round" stroke-width="2" d="m27.429 3.428-24 24M3.429 3.428l24 24"/></symbol><symbol id="icon-cil_arrow-right40" viewBox="0 0 32 32"><path opacity=".65" d="M0 0h32v32H0V0z"/><path d="M22.492 7.586 21.078 9l6 6H1v2h26.078l-6 6 1.414 1.414L30.906 16l-8.414-8.414z"/></symbol><symbol id="icon-cil_arrow-right32" viewBox="0 0 32 32"><path d="M22.492 7.586 21.078 9l6 6H1v2h26.078l-6 6 1.414 1.414L30.906 16l-8.414-8.414z"/></symbol><symbol id="icon-cil_arrow-left40" viewBox="0 0 32 32"><path opacity=".65" d="M0 0h32v32H0V0z"/><path d="M31.083 15H5.005l6-6-1.414-1.414L1.177 16l8.414 8.414L11.005 23l-6-6h26.078v-2z"/></symbol><symbol id="icon-cil_arrow-left32" viewBox="0 0 32 32"><path d="M31.084 15H5.006l6-6-1.414-1.414L1.178 16l8.414 8.414L11.006 23l-6-6h26.078v-2z"/></symbol></defs></svg>