<svg width="24" height="24" viewBox="0 0 24 24" fill="none" xmlns="http://www.w3.org/2000/svg">
<path d="M2.45407 7.93967C2.73536 7.65846 3.11683 7.50049 3.51457 7.50049C3.91232 7.50049 4.29378 7.65846 4.57507 7.93967L12.0001 15.3647L19.4251 7.93967C19.708 7.66643 20.0869 7.51524 20.4802 7.51866C20.8735 7.52207 21.2497 7.67983 21.5278 7.95794C21.8059 8.23605 21.9637 8.61227 21.9671 9.00557C21.9705 9.39886 21.8193 9.77776 21.5461 10.0607L13.0606 18.5462C12.7793 18.8274 12.3978 18.9853 12.0001 18.9853C11.6023 18.9853 11.2209 18.8274 10.9396 18.5462L2.45407 10.0607C2.17287 9.77938 2.01489 9.39791 2.01489 9.00017C2.01489 8.60242 2.17287 8.22096 2.45407 7.93967Z" fill="#C79002"/>
</svg>
