<?xml version="1.0" standalone="no"?>
<!DOCTYPE svg PUBLIC "-//W3C//DTD SVG 20010904//EN"
 "http://www.w3.org/TR/2001/REC-SVG-20010904/DTD/svg10.dtd">
<svg version="1.0" xmlns="http://www.w3.org/2000/svg"
 width="96.000000pt" height="96.000000pt" viewBox="0 0 96.000000 96.000000"
 preserveAspectRatio="xMidYMid meet">
<metadata>
Created by potrace 1.14, written by Peter Selinger 2001-2017
</metadata>
<g transform="translate(0.000000,96.000000) scale(0.100000,-0.100000)"
fill="#000000" stroke="none">
<path d="M70 876 c-6 -6 -10 -159 -10 -407 0 -436 -4 -409 60 -409 63 0 60
-12 60 269 l0 256 25 -53 c28 -60 25 -53 134 -292 82 -178 104 -210 138 -192
11 6 66 115 133 262 63 138 117 253 120 255 3 2 5 -103 4 -233 0 -130 3 -245
8 -254 13 -26 153 -26 166 0 5 9 8 192 8 405 -1 297 -4 390 -14 396 -12 7
-149 8 -155 0 -4 -4 -70 -147 -127 -274 -106 -233 -131 -287 -134 -283 -4 4
-211 455 -237 516 -10 23 -22 43 -26 43 -41 6 -145 3 -153 -5z"/>
<path d="M280 865 c-7 -9 -10 -18 -6 -22 9 -10 58 16 51 27 -9 15 -31 12 -45
-5z"/>
<path d="M310 800 c-11 -7 -12 -12 -3 -21 12 -12 53 4 53 21 0 13 -30 13 -50
0z"/>
<path d="M340 730 c-11 -7 -12 -12 -3 -21 12 -12 53 4 53 21 0 13 -30 13 -50
0z"/>
<path d="M375 660 c-9 -10 -13 -20 -8 -23 11 -7 53 10 53 22 0 18 -29 19 -45
1z"/>
<path d="M414 597 c-12 -7 -19 -17 -17 -24 6 -16 53 5 53 24 0 16 -8 16 -36 0z"/>
<path d="M443 533 c-15 -5 -18 -33 -4 -33 21 0 41 13 41 26 0 14 -14 17 -37 7z"/>
<path d="M473 463 c-12 -4 -19 -33 -9 -33 19 0 56 22 51 30 -7 11 -22 12 -42
3z"/>
</g>
</svg>
